<?xml version="1.0" encoding="UTF-8" standalone="no"?>
<!DOCTYPE svg PUBLIC "-//W3C//DTD SVG 1.1//EN"
"http://www.w3.org/Graphics/SVG/1.1/DTD/svg11.dtd">
<!-- Creator: dpic version 2021.11.01 option -v for SVG 1.1 -->
<!-- width="410" height="261" -->
<svg
 xmlns="http://www.w3.org/2000/svg" xmlns:xlink="http://www.w3.org/1999/xlink"
 xml:space="preserve"
 style="shape-rendering:geometricPrecision; text-rendering:geometricPrecision;
 image-rendering:optimizeQuality; fill-rule:evenodd; clip-rule:evenodd"
 width="409.04px" height="260px"
 viewBox="0 0 409.04 260"
 font-size="11pt" text-anchor="middle"
 stroke="black" stroke-miterlimit="10" stroke-width="1.066667" fill="none">
<g>
<circle fill="white"
 cx="20.266667" cy="158.933333" r="1.92" />
<text font-size="11pt" stroke-width="0.266667"
 fill="black"
 text-anchor="end"
 x="17.6" y="163.773333">a</text>
<circle fill="white"
 cx="20.266667" cy="110.933333" r="1.92" />
<text font-size="11pt" stroke-width="0.266667"
 fill="black"
 text-anchor="end"
 x="17.6" y="115.773333">b</text>
<circle fill="white"
 cx="20.266667" cy="62.933333" r="1.92" />
<text font-size="11pt" stroke-width="0.266667"
 fill="black"
 text-anchor="end"
 x="17.6" y="67.773333">c</text>
<circle fill="white"
 cx="20.266667" cy="14.933333" r="1.92" />
<text font-size="11pt" stroke-width="0.266667"
 fill="black"
 text-anchor="end"
 x="17.6" y="19.773333">d</text>
<polyline points="63.466667,158.933333 46.666667,168.533333
46.666667,149.333333
63.466667,158.933333" />
<circle cx="67.066667" cy="158.933333" r="3.6" />
<polyline points="63.466667,110.933333 46.666667,120.533333
46.666667,101.333333
63.466667,110.933333" />
<circle cx="67.066667" cy="110.933333" r="3.6" />
<polyline points="63.466667,62.933333 46.666667,72.533333
46.666667,53.333333
63.466667,62.933333" />
<circle cx="67.066667" cy="62.933333" r="3.6" />
<polyline points="137.866667,29.333333 118.666667,29.333333
118.666667,0.533333
137.866667,0.533333" />
<path d="M 137.866667,0.533333
 A 14.4 14.4 0 0 1 137.866667,29.333333" />
<line x1="20.266667" y1="158.933333" x2="46.666667" y2="158.933333" />
<line x1="20.266667" y1="110.933333" x2="46.666667" y2="110.933333" />
<line x1="20.266667" y1="62.933333" x2="46.666667" y2="62.933333" />
<line x1="20.266667" y1="14.933333" x2="118.666667" y2="7.733333" />
<line x1="70.666667" y1="62.933333" x2="118.666667" y2="22.133333" />
<polyline points="176.266667,151.179487 157.066667,151.179487
157.066667,122.379487
176.266667,122.379487" />
<path d="M 176.266667,122.379487
 A 14.4 14.4 0 0 1 176.266667,151.179487" />
<line x1="360.266667" y1="100.225641" x2="349.066667" y2="100.225641" />
<path d="M 349.066667,100.225641
 A 33.6 33.6 0 0 1 349.066667,129.025641" />
<line x1="349.066667" y1="129.025641" x2="360.266667" y2="129.025641" />
<path d="M 360.266667,100.225641
 A 24.622222 24.622222 0 0 1 382.666667,114.625641" />
<path d="M 360.266667,129.025641
 A 24.622222 24.622222 0 0 0 382.666667,114.625641" />
<line x1="70.666667" y1="158.933333" x2="157.066667" y2="143.979487" />
<line x1="70.666667" y1="110.933333" x2="157.066667" y2="129.579487" />
<line x1="190.666667" y1="136.779487" x2="351.528308" y2="121.825641" />
<line x1="152.266667" y1="14.933333" x2="351.528308" y2="107.425641" />
<line x1="382.666667" y1="114.625641" x2="394.666667" y2="114.625641" />
<circle fill="white"
 cx="394.666667" cy="114.625641" r="1.92" />
<text font-size="11pt" stroke-width="0.266667"
 fill="black"
 text-anchor="end"
 x="404.24" y="119.465641">f</text>
</g></svg>
