<?xml version="1.0" encoding="UTF-8" standalone="no"?>
<!DOCTYPE svg PUBLIC "-//W3C//DTD SVG 1.1//EN"
"http://www.w3.org/Graphics/SVG/1.1/DTD/svg11.dtd">
<!-- Creator: dpic version 2021.11.01 option -v for SVG 1.1 -->
<!-- width="410" height="278" -->
<svg
 xmlns="http://www.w3.org/2000/svg" xmlns:xlink="http://www.w3.org/1999/xlink"
 xml:space="preserve"
 style="shape-rendering:geometricPrecision; text-rendering:geometricPrecision;
 image-rendering:optimizeQuality; fill-rule:evenodd; clip-rule:evenodd"
 width="409.04px" height="277.353846px"
 viewBox="0 0 409.04 277.353846"
 font-size="11pt" text-anchor="middle"
 stroke="black" stroke-miterlimit="10" stroke-width="1.066667" fill="none">
<g>
<circle fill="white"
 cx="20.266667" cy="176.287179" r="1.92" />
<text font-size="11pt" stroke-width="0.266667"
 fill="black"
 text-anchor="end"
 x="17.6" y="181.127179">a</text>
<circle fill="white"
 cx="20.266667" cy="128.287179" r="1.92" />
<text font-size="11pt" stroke-width="0.266667"
 fill="black"
 text-anchor="end"
 x="17.6" y="133.127179">b</text>
<circle fill="white"
 cx="20.266667" cy="80.287179" r="1.92" />
<text font-size="11pt" stroke-width="0.266667"
 fill="black"
 text-anchor="end"
 x="17.6" y="85.127179">c</text>
<circle fill="white"
 cx="20.266667" cy="32.287179" r="1.92" />
<text font-size="11pt" stroke-width="0.266667"
 fill="black"
 text-anchor="end"
 x="17.6" y="37.127179">d</text>
<polyline points="63.466667,176.287179 46.666667,185.887179
46.666667,166.687179
63.466667,176.287179" />
<circle cx="67.066667" cy="176.287179" r="3.6" />
<polyline points="63.466667,128.287179 46.666667,137.887179
46.666667,118.687179
63.466667,128.287179" />
<circle cx="67.066667" cy="128.287179" r="3.6" />
<polyline points="63.466667,80.287179 46.666667,89.887179
46.666667,70.687179
63.466667,80.287179" />
<circle cx="67.066667" cy="80.287179" r="3.6" />
<line x1="129.866667" y1="17.887179" x2="118.666667" y2="17.887179" />
<path d="M 118.666667,17.887179
 A 33.6 33.6 0 0 1 118.666667,46.687179" />
<line x1="118.666667" y1="46.687179" x2="129.866667" y2="46.687179" />
<path d="M 129.866667,17.887179
 A 24.622222 24.622222 0 0 1 152.266667,32.287179" />
<path d="M 129.866667,46.687179
 A 24.622222 24.622222 0 0 0 152.266667,32.287179" />
<line x1="20.266667" y1="176.287179" x2="46.666667" y2="176.287179" />
<line x1="20.266667" y1="128.287179" x2="46.666667" y2="128.287179" />
<line x1="20.266667" y1="80.287179" x2="46.666667" y2="80.287179" />
<line x1="20.266667" y1="32.287179" x2="121.128308" y2="25.087179" />
<line x1="70.666667" y1="80.287179" x2="121.128308" y2="39.487179" />
<line x1="168.266667" y1="139.733333" x2="157.066667" y2="139.733333" />
<path d="M 157.066667,139.733333
 A 33.6 33.6 0 0 1 157.066667,168.533333" />
<line x1="157.066667" y1="168.533333" x2="168.266667" y2="168.533333" />
<path d="M 168.266667,139.733333
 A 24.622222 24.622222 0 0 1 190.666667,154.133333" />
<path d="M 168.266667,168.533333
 A 24.622222 24.622222 0 0 0 190.666667,154.133333" />
<polyline points="332.266667,10.133333 315.466667,19.733333
315.466667,0.533333
332.266667,10.133333" />
<circle cx="335.866667" cy="10.133333" r="3.6" />
<line x1="70.666667" y1="176.287179" x2="159.528308" y2="161.333333" />
<line x1="70.666667" y1="128.287179" x2="159.528308" y2="146.933333" />
<line x1="152.266667" y1="32.287179" x2="315.466667" y2="10.133333" />
<polyline points="368.266667,146.379487 349.066667,146.379487
349.066667,117.579487
368.266667,117.579487" />
<path d="M 368.266667,117.579487
 A 14.4 14.4 0 0 1 368.266667,146.379487" />
<line x1="190.666667" y1="154.133333" x2="349.066667" y2="139.179487" />
<line x1="339.466667" y1="10.133333" x2="349.066667" y2="124.779487" />
<line x1="382.666667" y1="131.979487" x2="394.666667" y2="131.979487" />
<circle fill="white"
 cx="394.666667" cy="131.979487" r="1.92" />
<text font-size="11pt" stroke-width="0.266667"
 fill="black"
 text-anchor="end"
 x="404.24" y="136.819487">f</text>
</g></svg>
